<svg id="logosandtypes_com" data-name="logosandtypes com" xmlns="http://www.w3.org/2000/svg" xmlns:xlink="http://www.w3.org/1999/xlink" viewBox="0 0 150 150"><defs><style>.cls-1{fill:none;}.cls-2{fill-rule:evenodd;fill:url(#linear-gradient);}</style><linearGradient id="linear-gradient" x1="88.09" y1="35.34" x2="60.9" y2="115.03" gradientUnits="userSpaceOnUse"><stop offset="0" stop-color="#1963b4"/><stop offset="1" stop-color="#083d80"/></linearGradient></defs><path class="cls-1" d="M0,.2H150v150H0Z" transform="translate(0 -0.2)"/><path id="path52" class="cls-2" d="M74.75,28c39.59,0,71.88,20.88,71.88,46.48s-32.29,46.49-71.88,46.49S2.87,100.05,2.87,74.44,35.16,28,74.75,28Zm50.18,25.42c3.5,5.84,1.55,12.09-9.31,17.37C91.76,82.34,49.84,74.2,45.94,109.39a81.07,81.07,0,0,0,28.81,5.12c32.53,0,59.06-18,59.06-40.06C133.81,66.73,130.55,59.51,124.93,53.38ZM30.66,101.05c5.83-22.7,17.48-50.25,31.51-65.73-26.52,3.93-46.48,20-46.48,39.13C15.69,84.65,21.36,94,30.66,101.05ZM50.35,80.14c3.84-12.76,11-27.9,20.86-39.25,29.6-3,55.11,14.18,30.51,23C86.38,69.4,63.9,68.28,50.35,80.14" transform="translate(0 -0.2)"/></svg>